<?xml version="1.0" encoding="UTF-8" standalone="no"?>
<!DOCTYPE svg PUBLIC "-//W3C//DTD SVG 1.1//EN" "http://www.w3.org/Graphics/SVG/1.1/DTD/svg11.dtd">
<svg height="100%" stroke-miterlimit="10" style="fill-rule:nonzero;clip-rule:evenodd;stroke-linecap:round;stroke-linejoin:round;" version="1.1" viewBox="0 0 512.001 512.001" width="100%" xml:space="preserve" xmlns="http://www.w3.org/2000/svg" xmlns:vectornator="http://vectornator.io" xmlns:xlink="http://www.w3.org/1999/xlink">
<defs/>
<g id="Untitled" vectornator:layerName="Untitled">
<path d="M346.329 0L165.671 0C155.612 0 145.966 3.995 138.854 11.109L11.109 138.853C3.995 145.965 0 155.612 0 165.671L0 346.33C0 356.389 3.995 366.035 11.109 373.147L138.854 500.892C145.966 508.004 155.613 512.001 165.671 512.001L346.33 512.001C356.389 512.001 366.035 508.006 373.147 500.892L500.892 373.147C508.004 366.035 512.001 356.387 512.001 346.33L512.001 165.671C512.001 155.612 508.006 145.966 500.892 138.854L373.147 11.109C366.035 3.995 356.388 0 346.329 0Z" fill="#ff5050" fill-rule="nonzero" opacity="1" stroke="none"/>
<g opacity="1">
<path d="M246.519 187.259L170.667 187.259C164.121 187.259 158.815 192.565 158.815 199.111C158.815 205.657 164.121 210.963 170.667 210.963L196.741 210.963L196.741 312.889C196.741 319.435 202.047 324.741 208.593 324.741C215.139 324.741 220.445 319.435 220.445 312.889L220.445 210.963L246.519 210.963C253.065 210.963 258.371 205.657 258.371 199.111C258.371 192.565 253.064 187.259 246.519 187.259Z" fill="#ffffff" fill-rule="nonzero" opacity="1" stroke="none"/>
<path d="M312.889 187.259C285.445 187.259 263.111 209.588 263.111 237.037L263.111 274.963C263.111 302.412 285.445 324.741 312.889 324.741C340.333 324.741 362.667 302.412 362.667 274.963L362.667 237.037C362.667 209.588 340.333 187.259 312.889 187.259ZM338.963 274.963C338.963 289.343 327.269 301.037 312.889 301.037C298.509 301.037 286.815 289.343 286.815 274.963L286.815 237.037C286.815 222.657 298.509 210.963 312.889 210.963C327.269 210.963 338.963 222.657 338.963 237.037L338.963 274.963Z" fill="#ffffff" fill-rule="nonzero" opacity="1" stroke="none"/>
<path d="M421.926 187.259L388.741 187.259C382.195 187.259 376.889 192.565 376.889 199.111L376.889 312.889C376.889 319.435 382.195 324.741 388.741 324.741C395.287 324.741 400.593 319.435 400.593 312.889L400.593 277.333L421.926 277.333C446.759 277.333 466.963 257.129 466.963 232.296C466.963 207.463 446.759 187.259 421.926 187.259ZM421.926 253.63L400.593 253.63L400.593 210.963L421.926 210.963C433.685 210.963 443.259 220.532 443.259 232.296C443.259 244.06 433.685 253.63 421.926 253.63Z" fill="#ffffff" fill-rule="nonzero" opacity="1" stroke="none"/>
<path d="M109.037 210.963C121.611 210.963 130.37 217.834 130.37 224C130.37 230.546 135.676 235.852 142.222 235.852C148.768 235.852 154.074 230.546 154.074 224C154.074 203.398 134.287 187.259 109.037 187.259C83.787 187.259 64 203.398 64 224C64 252.495 89.695 261.676 105.047 267.162C126.713 274.898 130.371 279.842 130.371 288C130.371 294.167 121.611 301.037 109.038 301.037C96.465 301.037 87.704 294.167 87.704 288C87.704 281.454 82.398 276.148 75.852 276.148C69.306 276.148 64 281.454 64 288C64 308.602 83.787 324.741 109.037 324.741C134.287 324.741 154.074 308.602 154.074 288C154.074 259.505 128.379 250.324 113.027 244.838C91.361 237.102 87.703 232.158 87.703 224C87.704 217.833 96.463 210.963 109.037 210.963Z" fill="#ffffff" fill-rule="nonzero" opacity="1" stroke="none"/>
</g>
</g>
</svg>
